<svg xmlns="http://www.w3.org/2000/svg" width="117" height="32" fill="none" xmlns:v="https://vecta.io/nano"><g clip-path="url(#A)"><g fill="#fff"><path d="M6.588 9.143c.927-1.251 2.098-2.301 3.443-3.086s2.834-1.29 4.38-1.483c.947-.12 1.906-.12 2.853 0 1.545.193 3.035.698 4.38 1.483s2.516 1.835 3.443 3.086h5.211a16 16 0 0 0-6.94-7.25A16 16 0 0 0 4.51 4.74a16 16 0 0 0-4.488 8.977h4.522a11.43 11.43 0 0 1 2.044-4.574z"/><path d="M31.673 13.718h-9.036a7.2 7.2 0 0 0-14.025 2.285 7.2 7.2 0 0 0 14.025 2.285h4.492c-.485 2.363-1.697 4.515-3.466 6.155a11.56 11.56 0 0 1-6.401 2.988 11.3 11.3 0 0 1-2.853 0c-1.546-.193-3.036-.698-4.38-1.484s-2.516-1.837-3.442-3.09a11.38 11.38 0 0 1-2.044-4.548H.022A16 16 0 0 0 18.11 31.632a16 16 0 0 0 13.585-17.893l-.022-.022zm26.006-5.767v13.584c0 6.063-3.274 8.851-9.156 8.851-3.094 0-6.093-.757-8.003-2.242l1.88-3.395c1.394 1.123 3.666 1.85 5.761 1.85 3.335 0 4.789-1.519 4.789-4.458v-.697c-1.244 1.364-3.034 2.031-5.163 2.031-4.518 0-8.175-3.124-8.175-7.883s3.64-7.883 8.175-7.883c2.276 0 4.152.757 5.396 2.332v-2.09h4.496zm-4.69 7.642c0-2.397-1.79-4.002-4.273-4.002s-4.303 1.605-4.303 4.002 1.82 4.002 4.303 4.002 4.273-1.609 4.273-4.002zm5.895.512c0-4.909 3.786-8.395 8.971-8.395s8.946 3.485 8.946 8.395-3.761 8.399-8.946 8.399-8.971-3.485-8.971-8.399zm13.128 0c0-2.818-1.79-4.514-4.156-4.514s-4.182 1.695-4.182 4.514 1.82 4.518 4.182 4.518 4.156-1.695 4.156-4.518z"/></g><g fill="#63e6be"><path d="M80.359 16.105c0-4.909 3.791-8.395 8.976-8.395s8.941 3.485 8.941 8.395-3.756 8.399-8.941 8.399-8.976-3.485-8.976-8.399zm13.128 0c0-2.818-1.79-4.514-4.152-4.514s-4.187 1.695-4.187 4.514 1.82 4.518 4.187 4.518 4.152-1.695 4.152-4.518zm14.836-8.395a8.33 8.33 0 0 0-4.04 1.037V7.71h-4.367v8.395 8.399h4.302v-8.386a4.1 4.1 0 0 1 .232-1.647c.189-.527.484-1.011.867-1.419s.846-.735 1.36-.957a4.1 4.1 0 0 1 3.258 0 4.11 4.11 0 0 1 1.36.957c.383.408.678.892.867 1.419a4.1 4.1 0 0 1 .232 1.647v8.386h4.303v-8.386c-.003-2.223-.885-4.355-2.453-5.931a8.42 8.42 0 0 0-5.921-2.477z"/></g></g><defs><clipPath id="A"><path fill="#fff" d="M0 0h116.735v32H0z"/></clipPath></defs></svg>