<svg xmlns="http://www.w3.org/2000/svg" width="185" height="24" fill="none" xmlns:v="https://vecta.io/nano"><g clip-path="url(#A)"><path d="M79.672 15.616h12.192l-6.44-10.4L73.584 24H68.2L82.6 1.464a3.43 3.43 0 0 1 2.79-1.467 3.43 3.43 0 0 1 2.81 1.427L102.64 24h-5.384l-2.536-4.2H82.384l-2.688-4.184h-.024zM135.64 19.8V.224h-4.576v21.504c-.001.299.059.595.176.87s.288.523.504.73c.217.222.475.397.761.517s.593.18.903.179h20.8l2.712-4.2h-21.304l.024-.024zm-75.656-3.496a8.04 8.04 0 0 0 8.04-8.04 8.04 8.04 0 0 0-8.04-8.04h-20V24h4.568V4.432h15.152a3.85 3.85 0 0 1 3.848 3.848 3.85 3.85 0 0 1-3.848 3.848H46.816L60.464 24h6.632l-9.168-7.696h2.056zM11.888 24h13.816a11.89 11.89 0 0 0 11.58-11.884A11.89 11.89 0 0 0 25.704.232H11.888a11.89 11.89 0 0 0-8.605 3.37 11.89 11.89 0 0 0-3.592 8.514 11.89 11.89 0 0 0 3.592 8.514c1.137 1.108 2.484 1.976 3.962 2.555s3.057.856 4.643.814zm13.504-4.184h-13.2c-1.997-.064-3.891-.903-5.281-2.338s-2.167-3.355-2.167-5.353.777-3.918 2.167-5.353 3.284-2.274 5.281-2.339h13.2c1.031-.033 2.058.141 3.021.513s1.84.933 2.581 1.65 1.33 1.577 1.733 2.527.61 1.971.61 3.002-.207 2.053-.61 3.002-.992 1.809-1.733 2.526-1.619 1.279-2.581 1.65-1.99.546-3.021.513zM112.184 24h14.104l2.672-4.184h-16.464a7.69 7.69 0 0 1-3.02-.513 7.7 7.7 0 0 1-2.582-1.65 7.69 7.69 0 0 1-1.732-2.526c-.403-.95-.61-1.971-.61-3.002s.207-2.052.61-3.002a7.69 7.69 0 0 1 1.732-2.527 7.7 7.7 0 0 1 2.582-1.65c.962-.372 1.989-.546 3.02-.513h13.4l2.704-4.2h-16.416c-1.587-.041-3.165.236-4.643.814a11.89 11.89 0 0 0-3.962 2.555 11.9 11.9 0 0 0-2.657 3.894c-.617 1.462-.934 3.033-.934 4.62s.317 3.158.934 4.621a11.9 11.9 0 0 0 2.657 3.894 11.89 11.89 0 0 0 3.962 2.555c1.478.579 3.056.856 4.643.814zm55.896-4.184c-1.676.001-3.307-.546-4.644-1.557a7.7 7.7 0 0 1-2.764-4.043h19.536l2.688-4.192h-22.224a7.69 7.69 0 0 1 7.408-5.6h13.408l2.68-4.2h-16.4a11.89 11.89 0 0 0-11.58 11.884 11.89 11.89 0 0 0 11.58 11.884h14.104l2.68-4.184h-16.48" fill="#c74634"/></g><defs><clipPath id="A"><path fill="#fff" d="M0 0h184.8v24H0z"/></clipPath></defs></svg>